<?xml version="1.0" encoding="UTF-8"?>
<svg width="24" height="24" viewBox="0 0 24 24" fill="none" xmlns="http://www.w3.org/2000/svg">
  <path d="M4.5 16.5C4.5 16.5 9 21 12 21C15 21 19.5 16.5 19.5 16.5C19.5 16.5 21 14.5 21 12C21 9.5 19.5 7.5 19.5 7.5C19.5 7.5 15 3 12 3C9 3 4.5 7.5 4.5 7.5C4.5 7.5 3 9.5 3 12C3 14.5 4.5 16.5 4.5 16.5Z" stroke="white" stroke-width="2" stroke-linecap="round" stroke-linejoin="round"/>
  <path d="M12 15C13.6569 15 15 13.6569 15 12C15 10.3431 13.6569 9 12 9C10.3431 9 9 10.3431 9 12C9 13.6569 10.3431 15 12 15Z" stroke="white" stroke-width="2" stroke-linecap="round" stroke-linejoin="round"/>
</svg> 